<svg width="680" height="680" viewBox="0 0 680 680" role="img" xmlns="http://www.w3.org/2000/svg">
  <title>Hades -1 — Terminal Roguelite</title>
  <desc>Capa do projeto Hades -1 com atmosfera sombria do Submundo</desc>

  <defs>
    <radialGradient id="sky" cx="50%" cy="40%" r="60%">
      <stop offset="0%" stop-color="#7a2010"/>
      <stop offset="50%" stop-color="#3d0e08"/>
      <stop offset="100%" stop-color="#0a0005"/>
    </radialGradient>
    <radialGradient id="glow" cx="50%" cy="50%" r="50%">
      <stop offset="0%" stop-color="#e85c1a" stop-opacity="0.5"/>
      <stop offset="100%" stop-color="#e85c1a" stop-opacity="0"/>
    </radialGradient>
  </defs>

  <rect width="680" height="680" fill="#08000d"/>
  <rect width="680" height="680" fill="url(#sky)"/>

  <ellipse cx="340" cy="720" rx="400" ry="200" fill="#c44010" opacity="0.35"/>
  <ellipse cx="340" cy="700" rx="280" ry="140" fill="#e8620a" opacity="0.2"/>

  <rect x="30" y="180" width="28" height="320" fill="#1f0a08" opacity="0.9"/>
  <rect x="20" y="175" width="48" height="14" fill="#2a0e0a" opacity="0.9"/>
  <rect x="58" y="230" width="18" height="270" fill="#1a0806" opacity="0.7"/>
  <rect x="14" y="168" width="60" height="10" fill="#3a1208"/>

  <rect x="622" y="190" width="28" height="310" fill="#1f0a08" opacity="0.9"/>
  <rect x="612" y="185" width="48" height="14" fill="#2a0e0a" opacity="0.9"/>
  <rect x="604" y="240" width="18" height="260" fill="#1a0806" opacity="0.7"/>
  <rect x="608" y="178" width="60" height="10" fill="#3a1208"/>

  <rect x="80" y="240" width="22" height="260" fill="#160608" opacity="0.95"/>
  <rect x="72" y="234" width="38" height="12" fill="#220a08"/>
  <rect x="110" y="280" width="16" height="220" fill="#130506" opacity="0.8"/>

  <rect x="578" y="250" width="22" height="250" fill="#160608" opacity="0.95"/>
  <rect x="570" y="244" width="38" height="12" fill="#220a08"/>
  <rect x="554" y="290" width="16" height="210" fill="#130506" opacity="0.8"/>

  <path d="M0 560 Q80 540 160 558 Q240 572 340 555 Q440 538 520 556 Q600 570 680 552" fill="none" stroke="#e8620a" stroke-width="2" opacity="0.6"/>
  <path d="M0 580 Q120 565 200 578 Q300 592 400 574 Q500 558 680 575" fill="none" stroke="#c44010" stroke-width="1.5" opacity="0.4"/>

  <rect x="0" y="570" width="680" height="110" fill="#0d0305"/>
  <rect x="0" y="570" width="680" height="8" fill="#1a0608"/>

  <ellipse cx="340" cy="622" rx="180" ry="22" fill="#8a2a04" opacity="0.7"/>
  <ellipse cx="340" cy="620" rx="120" ry="14" fill="#c44010" opacity="0.5"/>
  <ellipse cx="340" cy="618" rx="60" ry="8" fill="#e8720a" opacity="0.4"/>

  <rect x="115" y="120" width="52" height="460" fill="#1a0808"/>
  <rect x="108" y="112" width="66" height="18" fill="#280c0a"/>
  <rect x="108" y="560" width="66" height="20" fill="#280c0a"/>
  <line x1="128" y1="130" x2="128" y2="560" stroke="#120506" stroke-width="1.5"/>
  <line x1="141" y1="130" x2="141" y2="560" stroke="#120506" stroke-width="1.5"/>
  <line x1="154" y1="130" x2="154" y2="560" stroke="#120506" stroke-width="1.5"/>

  <rect x="513" y="120" width="52" height="460" fill="#1a0808"/>
  <rect x="506" y="112" width="66" height="18" fill="#280c0a"/>
  <rect x="506" y="560" width="66" height="20" fill="#280c0a"/>
  <line x1="526" y1="130" x2="526" y2="560" stroke="#120506" stroke-width="1.5"/>
  <line x1="539" y1="130" x2="539" y2="560" stroke="#120506" stroke-width="1.5"/>
  <line x1="552" y1="130" x2="552" y2="560" stroke="#120506" stroke-width="1.5"/>

  <rect x="108" y="112" width="464" height="22" fill="#280c0a"/>
  <rect x="114" y="107" width="452" height="10" fill="#3a1008"/>

  <ellipse cx="340" cy="340" rx="200" ry="250" fill="url(#glow)"/>

  <polygon points="340,155 348,420 340,445 332,420" fill="#c8c0b0"/>
  <polygon points="340,155 344,420 340,440" fill="#e8e0d0" opacity="0.6"/>
  <polygon points="336,280 342,260 344,310 338,310" fill="#c03020" opacity="0.5"/>
  <polygon points="335,340 341,320 343,370 337,370" fill="#c03020" opacity="0.4"/>
  <rect x="298" y="415" width="84" height="14" rx="3" fill="#7a5a20"/>
  <rect x="302" y="411" width="76" height="6" rx="2" fill="#a07828"/>
  <ellipse cx="310" cy="422" rx="5" ry="5" fill="#2a6a3a"/>
  <ellipse cx="370" cy="422" rx="5" ry="5" fill="#2a6a3a"/>
  <rect x="332" y="429" width="16" height="68" rx="3" fill="#4a2a10"/>
  <line x1="332" y1="440" x2="348" y2="440" stroke="#7a4a20" stroke-width="2"/>
  <line x1="332" y1="450" x2="348" y2="450" stroke="#7a4a20" stroke-width="2"/>
  <line x1="332" y1="460" x2="348" y2="460" stroke="#7a4a20" stroke-width="2"/>
  <line x1="332" y1="470" x2="348" y2="470" stroke="#7a4a20" stroke-width="2"/>
  <line x1="332" y1="480" x2="348" y2="480" stroke="#7a4a20" stroke-width="2"/>
  <ellipse cx="340" cy="500" rx="12" ry="10" fill="#8a6a28"/>
  <ellipse cx="340" cy="499" rx="7" ry="6" fill="#c0a040"/>

  <ellipse cx="340" cy="165" rx="16" ry="30" fill="#e87030" opacity="0.25"/>
  <circle cx="328" cy="172" r="2" fill="#e87030" opacity="0.7"/>
  <circle cx="352" cy="160" r="1.5" fill="#e8a050" opacity="0.6"/>
  <circle cx="322" cy="155" r="1" fill="#e87030" opacity="0.5"/>
  <circle cx="358" cy="175" r="1.5" fill="#e87030" opacity="0.5"/>
  <circle cx="335" cy="148" r="1" fill="#ffa060" opacity="0.6"/>
  <circle cx="346" cy="142" r="1.5" fill="#e87030" opacity="0.4"/>

  <text x="340" y="598" text-anchor="middle"
        font-family="Georgia, 'Times New Roman', serif"
        font-size="88" font-weight="700"
        fill="#c8340a" letter-spacing="8">HADES</text>
  <text x="342" y="600" text-anchor="middle"
        font-family="Georgia, 'Times New Roman', serif"
        font-size="88" font-weight="700"
        fill="none" stroke="#7a1808" stroke-width="3"
        letter-spacing="8" opacity="0.6">HADES</text>
  <text x="340" y="598" text-anchor="middle"
        font-family="Georgia, 'Times New Roman', serif"
        font-size="88" font-weight="700"
        fill="#e04a18" letter-spacing="8" opacity="0.4">HADES</text>

  <text x="340" y="632" text-anchor="middle"
        font-family="monospace"
        font-size="22" font-weight="400"
        fill="#e8780a" letter-spacing="16" opacity="0.9">— 1</text>

  <text x="340" y="657" text-anchor="middle"
        font-family="monospace" font-size="11"
        fill="#6a2010" letter-spacing="4">TERMINAL ROGUELITE · PYTHON</text>

  <rect x="0" y="0" width="150" height="680" fill="#08000d" opacity="0.25"/>
  <rect x="530" y="0" width="150" height="680" fill="#08000d" opacity="0.25"/>
  <rect x="0" y="0" width="680" height="100" fill="#08000d" opacity="0.3"/>
</svg>
